<svg width="600" height="740" viewBox="0 0 600 740" fill="none" xmlns="http://www.w3.org/2000/svg">
  <defs>
    <linearGradient id="bg" x1="0%" y1="0%" x2="100%" y2="100%">
      <stop offset="0%" style="stop-color:#10b981;stop-opacity:1" />
      <stop offset="100%" style="stop-color:#84cc16;stop-opacity:1" />
    </linearGradient>
    <linearGradient id="plant" x1="0%" y1="0%" x2="100%" y2="100%">
      <stop offset="0%" style="stop-color:#059669;stop-opacity:1" />
      <stop offset="100%" style="stop-color:#065f46;stop-opacity:1" />
    </linearGradient>
  </defs>
  
  <!-- Background -->
  <rect width="600" height="740" fill="url(#bg)"/>
  
  <!-- Greenhouse structure -->
  <rect x="50" y="200" width="500" height="400" fill="rgba(255,255,255,0.1)" stroke="rgba(255,255,255,0.3)" stroke-width="2" rx="20"/>
  
  <!-- Plants -->
  <!-- Large plant 1 -->
  <ellipse cx="150" cy="550" rx="40" ry="15" fill="rgba(6,95,70,0.3)"/>
  <path d="M150 550 Q130 500 120 450 Q125 440 135 445 Q145 430 155 440 Q165 425 175 435 Q180 450 170 460 Q160 480 150 550" fill="url(#plant)"/>
  <path d="M150 550 Q170 500 180 450 Q175 440 165 445 Q155 430 145 440 Q135 425 125 435 Q120 450 130 460 Q140 480 150 550" fill="url(#plant)"/>
  
  <!-- Large plant 2 -->
  <ellipse cx="300" cy="520" rx="50" ry="20" fill="rgba(6,95,70,0.3)"/>
  <path d="M300 520 Q270 460 250 400 Q260 385 275 395 Q290 375 305 385 Q320 370 335 380 Q345 400 330 415 Q315 440 300 520" fill="url(#plant)"/>
  <path d="M300 520 Q330 460 350 400 Q340 385 325 395 Q310 375 295 385 Q280 370 265 380 Q255 400 270 415 Q285 440 300 520" fill="url(#plant)"/>
  <path d="M300 520 Q285 450 275 390 Q285 375 295 385 Q305 370 315 380 Q325 365 335 375 Q340 390 330 400 Q320 420 300 520" fill="url(#plant)"/>
  
  <!-- Large plant 3 -->
  <ellipse cx="450" cy="540" rx="45" ry="18" fill="rgba(6,95,70,0.3)"/>
  <path d="M450 540 Q420 480 400 420 Q410 405 425 415 Q440 395 455 405 Q470 390 485 400 Q495 420 480 435 Q465 460 450 540" fill="url(#plant)"/>
  <path d="M450 540 Q480 480 500 420 Q490 405 475 415 Q460 395 445 405 Q430 390 415 400 Q405 420 420 435 Q435 460 450 540" fill="url(#plant)"/>
  
  <!-- Small plants -->
  <ellipse cx="200" cy="580" rx="25" ry="10" fill="rgba(6,95,70,0.3)"/>
  <path d="M200 580 Q185 550 175 520 Q180 515 185 520 Q195 510 205 515 Q210 520 205 525 Q200 540 200 580" fill="url(#plant)"/>
  
  <ellipse cx="380" cy="570" rx="30" ry="12" fill="rgba(6,95,70,0.3)"/>
  <path d="M380 570 Q360 530 345 490 Q350 485 360 490 Q375 475 385 485 Q395 480 405 485 Q410 490 400 500 Q390 520 380 570" fill="url(#plant)"/>
  
  <!-- Hanging plants -->
  <rect x="100" y="220" width="80" height="15" fill="rgba(255,255,255,0.2)" rx="7"/>
  <path d="M140 235 Q135 260 130 285 Q135 290 140 285 Q145 290 150 285 Q145 260 140 235" fill="url(#plant)"/>
  <path d="M140 235 Q145 260 150 285 Q145 290 140 285 Q135 290 130 285 Q135 260 140 235" fill="url(#plant)"/>
  
  <rect x="420" y="240" width="80" height="15" fill="rgba(255,255,255,0.2)" rx="7"/>
  <path d="M460 255 Q455 280 450 305 Q455 310 460 305 Q465 310 470 305 Q465 280 460 255" fill="url(#plant)"/>
  
  <!-- Glass reflections -->
  <rect x="60" y="210" width="20" height="300" fill="rgba(255,255,255,0.1)" rx="10"/>
  <rect x="520" y="230" width="15" height="250" fill="rgba(255,255,255,0.1)" rx="7"/>
  
  <!-- Decorative elements -->
  <circle cx="120" cy="150" r="8" fill="rgba(255,255,255,0.2)"/>
  <circle cx="480" cy="120" r="12" fill="rgba(255,255,255,0.15)"/>
  <circle cx="350" cy="100" r="6" fill="rgba(255,255,255,0.25)"/>
  
  <!-- Text overlay -->
  <rect x="50" y="620" width="500" height="80" fill="rgba(255,255,255,0.9)" rx="15"/>
  <text x="300" y="645" text-anchor="middle" fill="#10b981" font-family="system-ui" font-size="14" font-weight="600">PLANT OF THE WEEK</text>
  <text x="300" y="670" text-anchor="middle" fill="#065f46" font-family="system-ui" font-size="20" font-weight="700">ฟิโลเดนดรอน บิรูซ่า</text>
  <text x="300" y="690" text-anchor="middle" fill="#059669" font-family="system-ui" font-size="12">สีเขียวอมฟ้าสุดหายาก ช่วยฟอกอากาศและลดความเครียด</text>
</svg>
